<svg preserveAspectRatio="none" width="100%" height="100%" overflow="visible" style="display: block;" viewBox="0 0 37.4118 36" fill="none" xmlns="http://www.w3.org/2000/svg">
<path id="Warren Bubble" fill-rule="evenodd" clip-rule="evenodd" d="M28.0589 23.0322C28.0589 25.0098 26.4613 26.6133 24.4907 26.6133C24.0772 26.6133 23.742 26.2769 23.742 25.8618V10.1381C23.742 9.72313 24.0772 9.38674 24.4907 9.38674H27.3102C27.7237 9.38674 28.0589 9.72313 28.0589 10.1381V23.0322ZM20.8643 25.8618C20.8643 26.2769 20.529 26.6133 20.1156 26.6133H17.2962C16.8826 26.6133 16.5476 26.2769 16.5476 25.8618V14.4449C16.5476 14.0299 16.8826 13.6935 17.2962 13.6935H20.1156C20.529 13.6935 20.8643 14.0299 20.8643 14.4449V25.8618ZM13.6697 25.8618C13.6697 26.2769 13.3344 26.6133 12.921 26.6133H10.1016C9.68805 26.6133 9.35297 26.2769 9.35297 25.8618V12.3043C9.35297 11.8894 9.68805 11.5529 10.1016 11.5529H12.921C13.3344 11.5529 13.6697 11.8894 13.6697 12.3043V25.8618ZM23.742 0H13.6697C6.12017 0 0 6.14224 0 13.7192V35.2486C0 35.6636 0.335175 36 0.748676 36H23.742C31.2917 36 37.4118 29.8577 37.4118 22.2807V13.7192C37.4118 6.14224 31.2917 0 23.742 0V0Z" fill="var(--fill-0, #E02B57)"/>
</svg>
