<svg preserveAspectRatio="none" width="100%" height="100%" overflow="visible" style="display: block;" viewBox="0 0 25.4942 24" fill="none" xmlns="http://www.w3.org/2000/svg">
<g id="Group 809">
<path id="Vector" d="M24.2599 6.7887H17.5361V1.42514C17.5361 1.04717 17.386 0.684679 17.1187 0.417414C16.8514 0.150148 16.489 0 16.111 0H1.42514C1.23799 0 1.05267 0.0368623 0.879762 0.108482C0.706856 0.180102 0.54975 0.285077 0.417414 0.417414C0.150148 0.684679 0 1.04717 0 1.42514V20.9142C0.000532436 21.1008 0.0378172 21.2855 0.109725 21.4577C0.181634 21.63 0.286757 21.7863 0.419094 21.9179C0.551431 22.0495 0.708389 22.1537 0.881006 22.2246C1.05362 22.2956 1.23852 22.3318 1.42514 22.3312H14.5316V22.7819C14.5316 23.105 14.6599 23.4148 14.8883 23.6432C15.1167 23.8717 15.4266 24 15.7496 24H24.2761C24.5992 24 24.909 23.8717 25.1374 23.6432C25.3658 23.4148 25.4942 23.105 25.4942 22.7819V7.98647C25.4888 7.66411 25.3559 7.35703 25.1245 7.13251C24.8932 6.90799 24.5822 6.78436 24.2599 6.7887V6.7887ZM24.2599 19.3754H15.7456V8.00677L24.272 7.98647L24.2599 19.3754ZM1.42514 1.21401H16.111C16.1383 1.21346 16.1655 1.21843 16.1909 1.22864C16.2162 1.23886 16.2393 1.25409 16.2586 1.27343C16.278 1.29277 16.2932 1.31581 16.3034 1.34119C16.3136 1.36656 16.3186 1.39373 16.3181 1.42108V6.7887H15.7293C15.4098 6.78865 15.103 6.9142 14.8751 7.13826C14.6473 7.36232 14.5166 7.66695 14.5113 7.98647V17.5645H1.21807V1.42514C1.21695 1.39746 1.22152 1.36984 1.23148 1.34399C1.24144 1.31814 1.25658 1.2946 1.27598 1.27482C1.29538 1.25505 1.31862 1.23945 1.34427 1.22899C1.36992 1.21853 1.39744 1.21343 1.42514 1.21401V1.21401ZM1.42514 21.1091C1.37198 21.1102 1.3205 21.0904 1.28178 21.054C1.24306 21.0175 1.22018 20.9674 1.21807 20.9142V18.7826H14.5316V21.101L1.42514 21.1091ZM15.7496 22.7779V20.5813H24.2396V22.7495L15.7496 22.7779Z" fill="var(--fill-0, #242A2F)"/>
<path id="Vector_2" d="M20.4066 21.1211H19.6798C19.5183 21.1211 19.3634 21.1853 19.2492 21.2995C19.135 21.4137 19.0708 21.5686 19.0708 21.7301C19.0708 21.8917 19.135 22.0466 19.2492 22.1608C19.3634 22.275 19.5183 22.3392 19.6798 22.3392H20.4066C20.5681 22.3392 20.7231 22.275 20.8373 22.1608C20.9515 22.0466 21.0156 21.8917 21.0156 21.7301C21.0156 21.5686 20.9515 21.4137 20.8373 21.2995C20.7231 21.1853 20.5681 21.1211 20.4066 21.1211V21.1211Z" fill="var(--fill-0, #242A2F)"/>
<path id="Vector_3" d="M8.76594 19.1367C8.60069 19.1375 8.43938 19.1873 8.30237 19.2797C8.16536 19.3721 8.05879 19.503 7.9961 19.6559C7.93342 19.8088 7.91743 19.9768 7.95016 20.1388C7.98289 20.3008 8.06287 20.4494 8.18001 20.566C8.29714 20.6826 8.44618 20.7618 8.60831 20.7938C8.77045 20.8257 8.93841 20.8089 9.09101 20.7455C9.24361 20.6821 9.374 20.5749 9.46573 20.4374C9.55745 20.2999 9.60641 20.1384 9.60641 19.9731C9.60641 19.863 9.58464 19.7539 9.54235 19.6521C9.50007 19.5504 9.43809 19.458 9.36 19.3803C9.2819 19.3025 9.18921 19.241 9.08727 19.1992C8.98532 19.1574 8.87612 19.1362 8.76594 19.1367Z" fill="var(--fill-0, #242A2F)"/>
</g>
</svg>
