<svg preserveAspectRatio="none" width="100%" height="100%" overflow="visible" style="display: block;" viewBox="0 0 32 32" fill="none" xmlns="http://www.w3.org/2000/svg">
<g id="Github">
<path id="Fill-4" d="M16.0001 0C7.16466 0 0 7.34463 0 16.4051C0 23.6533 4.58452 29.8026 10.9419 31.9718C11.7415 32.1237 12.0351 31.6159 12.0351 31.1826C12.0351 30.7914 12.0202 29.4991 12.0133 28.1283C7.5621 29.1207 6.62283 26.1928 6.62283 26.1928C5.89499 24.2966 4.8463 23.7924 4.8463 23.7924C3.39461 22.7742 4.95573 22.7951 4.95573 22.7951C6.56242 22.9108 7.40842 24.4856 7.40842 24.4856C8.83547 26.9936 11.1514 26.2685 12.0645 25.8494C12.2081 24.7891 12.6227 24.0654 13.0803 23.6557C9.52648 23.2409 5.7906 21.8342 5.7906 15.5483C5.7906 13.7572 6.41563 12.2938 7.43916 11.1449C7.27303 10.7317 6.72537 9.06316 7.59415 6.80348C7.59415 6.80348 8.93774 6.36258 11.9953 8.48507C13.2716 8.12158 14.6404 7.9393 16.0001 7.93305C17.3599 7.9393 18.7297 8.12158 20.0084 8.48507C23.0623 6.36258 24.404 6.80348 24.404 6.80348C25.2749 9.06316 24.727 10.7317 24.5608 11.1449C25.5868 12.2938 26.2075 13.7572 26.2075 15.5483C26.2075 21.8492 22.4645 23.2365 18.9017 23.6427C19.4756 24.1518 19.9869 25.1501 19.9869 26.6807C19.9869 28.8757 19.9684 30.6423 19.9684 31.1826C19.9684 31.6192 20.2564 32.1307 21.0674 31.9696C27.4213 29.798 32 23.6508 32 16.4051C32 7.34463 24.8364 0 16.0001 0" fill="var(--fill-0, #242A2F)"/>
<path id="Fill-5" d="M6.10724 23.4415C6.07207 23.5222 5.94724 23.5464 5.83352 23.491C5.71769 23.438 5.65263 23.328 5.69018 23.2471C5.72456 23.1639 5.84965 23.1408 5.96522 23.1965C6.08132 23.2495 6.14744 23.3606 6.10724 23.4415" fill="var(--fill-0, #242A2F)"/>
<path id="Fill-6" d="M6.75412 24.1753C6.67795 24.2471 6.52906 24.2138 6.42803 24.1003C6.32357 23.987 6.304 23.8356 6.38122 23.7627C6.45977 23.6909 6.60417 23.7245 6.70889 23.8377C6.81336 23.9523 6.83372 24.1027 6.75412 24.1753" fill="var(--fill-0, #242A2F)"/>
<path id="Fill-7" d="M7.3838 25.1108C7.28595 25.18 7.12595 25.1151 7.02704 24.9707C6.92919 24.8263 6.92919 24.653 7.02916 24.5836C7.12833 24.5142 7.28595 24.5766 7.38618 24.72C7.48377 24.8669 7.48377 25.0401 7.3838 25.1108" fill="var(--fill-0, #242A2F)"/>
<path id="Fill-8" d="M8.24648 26.0146C8.15894 26.1128 7.9725 26.0864 7.83603 25.9525C7.6964 25.8215 7.65752 25.6356 7.74532 25.5374C7.83392 25.439 8.02142 25.4667 8.15894 25.5996C8.29752 25.7303 8.33983 25.9175 8.24648 26.0146" fill="var(--fill-0, #242A2F)"/>
<path id="Fill-9" d="M9.43656 26.5394C9.39795 26.6666 9.21838 26.7245 9.03749 26.6704C8.85686 26.6147 8.73864 26.4657 8.77514 26.3371C8.81269 26.2091 8.99306 26.1488 9.17527 26.2067C9.35564 26.2621 9.47412 26.41 9.43656 26.5394" fill="var(--fill-0, #242A2F)"/>
<path id="Fill-10" d="M10.7435 26.6368C10.748 26.7707 10.5946 26.8818 10.4048 26.8842C10.2138 26.8885 10.0594 26.7801 10.0573 26.6483C10.0573 26.513 10.2072 26.403 10.3981 26.3998C10.588 26.396 10.7435 26.5036 10.7435 26.6368" fill="var(--fill-0, #242A2F)"/>
<path id="Fill-11" d="M11.9598 26.4262C11.9825 26.5569 11.8506 26.6911 11.662 26.7269C11.4766 26.7613 11.305 26.6806 11.2815 26.551C11.2584 26.417 11.3928 26.2828 11.5779 26.2481C11.7667 26.2147 11.9357 26.2933 11.9598 26.4262" fill="var(--fill-0, #242A2F)"/>
</g>
</svg>
