<svg preserveAspectRatio="none" width="100%" height="100%" overflow="visible" style="display: block;" viewBox="0 0 72.3478 44" fill="none" xmlns="http://www.w3.org/2000/svg">
<g id="icon-animation">
<rect width="72.3478" height="44" rx="22" fill="var(--fill-0, #FFE887)"/>
<path id="icon-1" fill-rule="evenodd" clip-rule="evenodd" d="M24.2292 16.2292C24.5348 15.9236 25.0304 15.9236 25.336 16.2292L30.5534 21.4466C30.7001 21.5934 30.7826 21.7924 30.7826 22C30.7826 22.2076 30.7001 22.4066 30.5534 22.5534L25.336 27.7707C25.0304 28.0764 24.5348 28.0764 24.2292 27.7707C23.9236 27.4651 23.9236 26.9697 24.2292 26.6641L28.8932 22L24.2292 17.336C23.9236 17.0304 23.9236 16.5348 24.2292 16.2292Z" fill="var(--fill-0, #242A2F)"/>
<path id="icon-2" fill-rule="evenodd" clip-rule="evenodd" d="M33.0118 16.2292C33.3174 15.9236 33.813 15.9236 34.1186 16.2292L39.336 21.4466C39.4828 21.5934 39.5652 21.7924 39.5652 22C39.5652 22.2076 39.4828 22.4066 39.336 22.5534L34.1186 27.7707C33.813 28.0764 33.3174 28.0764 33.0118 27.7707C32.7062 27.4651 32.7062 26.9697 33.0118 26.6641L37.6758 22L33.0118 17.336C32.7062 17.0304 32.7062 16.5348 33.0118 16.2292Z" fill="var(--fill-0, #242A2F)" fill-opacity="0.48"/>
<path id="icon-3" fill-rule="evenodd" clip-rule="evenodd" d="M41.7944 16.2292C42.1001 15.9236 42.5956 15.9236 42.9012 16.2292L48.1186 21.4466C48.2654 21.5934 48.3478 21.7924 48.3478 22C48.3478 22.2076 48.2654 22.4066 48.1186 22.5534L42.9012 27.7707C42.5956 28.0764 42.1001 28.0764 41.7944 27.7707C41.4888 27.4651 41.4888 26.9697 41.7944 26.6641L46.4584 22L41.7944 17.336C41.4888 17.0304 41.4888 16.5348 41.7944 16.2292Z" fill="var(--fill-0, #242A2F)" fill-opacity="0.16"/>
</g>
</svg>
