<svg preserveAspectRatio="none" width="100%" height="100%" overflow="visible" style="display: block;" viewBox="0 0 1652 305" fill="none" xmlns="http://www.w3.org/2000/svg">
<path id="Vector 5" d="M106.225 96.2544C93.6651 102.234 43.597 114.584 0 116.464V305H1652V120.046C1649.1 118.632 1647.67 118.632 1645.98 118.392C1638.05 117.218 1630.42 116.271 1624.66 113.903C1618.9 109.67 1612.56 103.773 1603.05 103.315C1588.21 102.602 1580.77 102.619 1567.12 96.2332C1557.53 91.745 1549.67 87.3919 1541.25 81.8567C1532.63 76.1952 1526.73 68.9924 1517.53 70.8093C1513.95 71.5161 1511.88 75.2331 1504.99 75.5237C1477.01 76.7041 1464.31 74.9977 1457.62 79.5384C1450.67 84.2528 1445.53 91.2713 1439.17 93.1939C1432.92 95.0811 1426.44 98.4613 1420.48 100.262C1414.23 102.149 1403.11 102.282 1394.83 105.916C1388.35 108.765 1381.3 114.12 1375.42 118.653C1368.71 123.834 1361.83 127.171 1355.53 129.948C1349.06 132.796 1348.3 142.207 1338.48 145.038C1330.34 147.385 1322.87 151.482 1312.04 151.859C1291.92 152.559 1276.67 153.619 1265.54 153.739C1243.98 153.972 1227.78 153.39 1218.11 152.071C1200.87 149.717 1188.52 147.405 1183.68 147.138C1170.74 146.424 1158.96 147.206 1141.02 137.454C1132.4 132.768 1113.94 129.681 1101.01 125.453C1088.72 121.431 1074.09 119.345 1065.06 116.738C1046.93 111.507 1021.18 104.189 1013.06 102.602C988.785 97.8518 950.586 93.5683 944.044 90.3455C934.432 85.6099 926.539 74.4983 915.984 71.9614C907.454 69.9112 900.128 64.9379 892.741 64.4543C884.924 63.9425 877.098 68.0239 869.986 69.636C859.633 71.9826 846.608 72.1129 839.071 78.3792C828.028 87.5607 816.816 89.5539 808.142 93.9149C795.474 100.283 786.33 116.006 776.292 114.151C772.467 113.444 762.678 111.908 750.381 113.218C739.367 114.391 726.368 118.126 714.211 119.819C702.442 121.459 677.004 121.01 659.298 116.257C648.765 113.43 629.445 115.355 610.647 111.324C598.453 108.708 589.944 102.611 582.421 101.428C574.958 100.255 565.519 93.7105 552.433 89.151C535.617 83.2915 518.439 80.4273 511 74.5483C501.136 66.7522 484.094 55.5021 470.696 53.1249C449.343 49.3364 436.079 44.7632 422.764 43.9435C403.359 42.749 393.163 39.7775 388.067 34.9741C382.309 29.5458 372.431 25.1242 365.543 17.0635C359.273 9.72687 349 -3.93847 342.529 1.0826C339.186 3.67659 333.844 8.27426 323.786 14.0667C304.173 25.3615 297.595 29.5643 290.283 30.9947C283.094 32.4013 270.315 36.7193 258.887 44.9118C249.993 51.2872 240.668 57.7316 232.257 59.5074C215.484 63.0485 206.556 71.1259 188.638 80.7329C172.318 89.4832 161.197 102.836 151.023 103.796C143.603 104.496 137.781 104.198 134.997 102.835C128.75 99.7743 118.762 90.2858 106.225 96.2544Z" fill="var(--fill-0, #979797)"/>
</svg>
