<svg preserveAspectRatio="none" width="100%" height="100%" overflow="visible" style="display: block;" viewBox="0 0 280 60" fill="none" xmlns="http://www.w3.org/2000/svg">
<g id="icon-animation">
<rect width="280" height="60" rx="24" fill="var(--fill-0, #FFE887)"/>
<path id="icon-1" fill-rule="evenodd" clip-rule="evenodd" d="M227.881 24.2292C228.187 23.9236 228.683 23.9236 228.988 24.2292L234.206 29.4466C234.352 29.5934 234.435 29.7924 234.435 30C234.435 30.2076 234.352 30.4066 234.206 30.5534L228.988 35.7707C228.683 36.0764 228.187 36.0764 227.881 35.7707C227.576 35.4651 227.576 34.9697 227.881 34.6641L232.545 30L227.881 25.336C227.576 25.0304 227.576 24.5348 227.881 24.2292Z" fill="var(--fill-0, #242A2F)" fill-opacity="0.16"/>
<path id="icon-2" fill-rule="evenodd" clip-rule="evenodd" d="M236.664 24.2292C236.97 23.9236 237.465 23.9236 237.771 24.2292L242.988 29.4466C243.135 29.5934 243.217 29.7924 243.217 30C243.217 30.2076 243.135 30.4066 242.988 30.5534L237.771 35.7707C237.465 36.0764 236.97 36.0764 236.664 35.7707C236.358 35.4651 236.358 34.9697 236.664 34.6641L241.328 30L236.664 25.336C236.358 25.0304 236.358 24.5348 236.664 24.2292Z" fill="var(--fill-0, #242A2F)" fill-opacity="0.48"/>
<path id="icon-3" fill-rule="evenodd" clip-rule="evenodd" d="M245.447 24.2292C245.752 23.9236 246.248 23.9236 246.553 24.2292L251.771 29.4466C251.918 29.5934 252 29.7924 252 30C252 30.2076 251.918 30.4066 251.771 30.5534L246.553 35.7707C246.248 36.0764 245.752 36.0764 245.447 35.7707C245.141 35.4651 245.141 34.9697 245.447 34.6641L250.111 30L245.447 25.336C245.141 25.0304 245.141 24.5348 245.447 24.2292Z" fill="var(--fill-0, #242A2F)"/>
</g>
</svg>
