<svg preserveAspectRatio="none" width="100%" height="100%" overflow="visible" style="display: block;" viewBox="0 0 380.78 197.243" fill="none" xmlns="http://www.w3.org/2000/svg">
<path id="Vector 2" d="M8.84844 11.389C7.52598 9.7173 5.90903 7.64438 1.44313 0.0870076C0.860065 1.13511 0.232532 0.00347351 0 0.411273L1.39173 197.243H380.78C379.225 196.554 377.483 196.601 375.39 195.152C369.379 190.99 366.155 189.137 363.361 188.16C357.578 186.138 353.062 186.297 348.322 182.779C343.46 179.169 340.157 174.278 336.558 173.524C330.486 172.252 326.082 171.278 324.902 170.517C323.111 169.361 320.971 166.277 317.551 164.73C313.737 163.003 309.702 161.132 305.81 159.237C303.558 158.141 299.427 156.254 294.699 154.901C291.067 153.861 283.943 152.421 278.631 150.102C276.365 149.113 274.042 147.484 271.801 146.804C268.389 145.768 265.707 146.738 259.189 145.362C256.707 144.838 254.23 144.857 251.211 142.696C249.19 141.249 248.086 139.77 246.587 138.762C244.442 137.32 241.197 136.187 236.61 135C231.698 133.728 227.411 133.093 225.237 132.867C222.459 132.579 218.366 133.219 216.04 130.891C212.977 127.824 211.084 125.553 209.22 124.999C207.07 124.361 201.888 122.67 198.227 120.543C194.201 118.204 189.073 113.955 186.078 109.831C183.004 105.598 180.178 102.747 178.737 101.977C177.111 101.107 174.851 99.6378 172.422 98.2682C168.434 96.0192 166.706 95.2043 164.499 94.6865C160.327 93.7078 157.326 93.6266 153.217 93.3017C149.575 93.0136 145.388 92.7743 140.13 92.1425C135.796 91.6219 132.355 90.7755 129.837 90.6987C126.082 90.5842 123.136 90.4827 121.636 89.7096C119.731 88.7274 115.469 85.6372 109.77 84.3873C105.838 83.5249 100.308 83.6708 99.4934 81.2082C99.2643 80.5158 99.2357 79.016 97.7546 76.6911C96.1338 74.1471 94.6539 70.1906 91.202 67.893C84.7778 63.6172 80.6665 61.8639 76.9671 59.3882C69.9789 54.7115 67.4109 52.3495 63.2163 49.6235C61.0801 48.2352 59.1162 48.0361 52.4902 44.4053C47.6417 41.7485 43.9285 39.3155 42.3958 37.4744C41.5334 36.4384 37.9771 34.0245 32.3691 31.222C29.1466 29.6117 25.7578 28.2894 22.2452 25.0807C16.3086 19.6578 14.8791 17.6355 13.1868 16.0171C11.7968 14.6878 10.0928 12.9619 8.84844 11.389Z" fill="var(--fill-0, #525252)"/>
</svg>
