<svg preserveAspectRatio="none" width="100%" height="100%" overflow="visible" style="display: block;" viewBox="0 0 30.1487 24" fill="none" xmlns="http://www.w3.org/2000/svg">
<g id="Group 808">
<path id="Vector" d="M30.119 15.6225L25.1004 0.4021C25.0707 0.3105 25.0187 0.227718 24.949 0.16118C24.8794 0.0946411 24.7943 0.0464282 24.7015 0.0208665C24.6086 -0.00469527 24.5109 -0.00680621 24.417 0.014723C24.3231 0.0362523 24.2361 0.0807482 24.1637 0.144219C23.7251 0.523395 23.2613 0.872437 22.7756 1.18895C22.646 1.27321 22.5552 1.40549 22.5232 1.55669C22.4911 1.70789 22.5205 1.86564 22.6047 1.99522C22.689 2.12479 22.8213 2.21559 22.9725 2.24764C23.1237 2.27969 23.2814 2.25036 23.411 2.1661C23.6973 1.97968 23.9788 1.78083 24.2553 1.56956L26.302 7.77579C22.6179 8.57041 19.7533 7.13731 15.1627 4.83346L14.7898 4.64704C17.1512 4.55769 19.4772 4.04356 21.6563 3.12927C21.7969 3.0651 23.411 2.1661 23.411 2.1661C23.465 2.02131 22.906 2.08248 22.8418 1.94188C22.7777 1.80128 22.9204 1.24299 22.7756 1.18895C22.7756 1.18895 21.313 2.00484 21.1724 2.06901C18.4367 3.31569 15.5697 3.45939 12.5341 3.61086C8.36299 3.8198 4.05047 4.03496 0.200898 7.36023C0.11413 7.43529 0.0515253 7.53436 0.0209763 7.64494C-0.00957283 7.75553 -0.00669856 7.87268 0.0292362 7.98163L5.00044 23.0615L5.14294 23.5866C5.1655 23.6609 5.2027 23.73 5.25235 23.7897C5.302 23.8495 5.3631 23.8987 5.43206 23.9345C5.50102 23.9703 5.57644 23.9919 5.65388 23.9981C5.73133 24.0043 5.80923 23.995 5.88301 23.9706C5.95679 23.9463 6.02495 23.9074 6.08348 23.8563C6.14202 23.8053 6.18974 23.743 6.22385 23.6732C6.25795 23.6034 6.27775 23.5274 6.28208 23.4499C6.2864 23.3723 6.27517 23.2946 6.24904 23.2215H6.28208C9.74949 20.3972 13.5727 20.1976 17.6141 19.9956C21.7852 19.7867 26.0985 19.5708 29.9473 16.2463C30.0345 16.171 30.0973 16.0715 30.1279 15.9605C30.1584 15.8494 30.1553 15.7318 30.119 15.6225ZM26.111 9.00539C23.8965 14.4108 21.9538 15.7289 18.8499 17.8347C18.4305 18.119 17.9955 18.4173 17.5294 18.7389C16.821 18.3909 16.1499 18.0538 15.5099 17.7291C13.2814 16.4832 10.9214 15.4888 8.47329 14.7642C8.32368 14.7308 8.16694 14.7571 8.03639 14.8375C7.90585 14.9178 7.81179 15.0459 7.77422 15.1945C7.73916 15.3443 7.76472 15.5018 7.84533 15.6327C7.92594 15.7637 8.05506 15.8575 8.20454 15.8936C10.5653 16.6009 12.8416 17.5647 14.9926 18.7676L15.3615 18.9525C12.1357 19.1855 8.88963 19.7455 5.89681 22.0307L3.84697 15.8338C4.76412 15.6297 5.7067 15.5642 6.64327 15.6396C6.79465 15.6481 8.20454 15.8936 8.20454 15.8936C8.31904 15.7942 8.45912 15.2977 8.47196 15.1466C8.4848 14.9956 8.56938 14.8815 8.47329 14.7642C8.37721 14.6469 6.89257 14.4963 6.74192 14.4792C5.84041 14.4027 4.93278 14.4439 4.04193 14.6019C6.25722 9.19492 8.19988 7.87677 11.3038 5.771C11.7232 5.48671 12.1582 5.18921 12.6242 4.86764C13.3342 5.21562 14.0061 5.55273 14.6477 5.87742C19.1373 8.12999 22.2373 9.68582 26.111 9.00539ZM10.5224 4.8956C7.50002 6.94622 5.39581 8.43448 3.15022 13.7226L1.26194 7.99328C4.13048 5.65604 7.2437 5.12241 10.5224 4.8956ZM19.6298 18.7132C22.6521 16.6626 24.7524 15.1743 27.0011 9.887L28.8894 15.6148C26.0209 17.9505 22.9077 18.4841 19.6298 18.7132Z" fill="var(--fill-0, #242A2F)"/>
<path id="Vector_2" d="M13.7905 7.37722C13.1985 7.34901 12.6083 7.46422 12.0704 7.71306C11.5324 7.96189 11.0625 8.33699 10.7006 8.80644C10.44 9.18027 10.2558 9.60188 10.1585 10.0471C10.0611 10.4923 10.0527 10.9523 10.1336 11.4008C10.1359 11.4241 10.1398 11.4472 10.1452 11.4699C10.1798 11.6805 10.2302 11.8883 10.2959 12.0913C10.7834 13.3 11.6173 14.3375 12.6928 15.0736C13.7683 15.8097 15.0374 16.2114 16.3406 16.2283H16.3592C16.951 16.2524 17.54 16.1352 18.0775 15.8864C18.615 15.6376 19.0854 15.2643 19.4499 14.7975C19.8899 14.1759 20.106 13.4234 20.0628 12.663C20.0639 12.6415 20.0639 12.62 20.0628 12.5985C20.0434 12.2286 19.9747 11.8629 19.8585 11.5111C19.3711 10.3024 18.5372 9.26482 17.4617 8.52885C16.3861 7.79288 15.117 7.3914 13.8138 7.37489L13.7905 7.37722ZM18.507 14.1155C18.2515 14.4344 17.9231 14.6872 17.5494 14.8525C17.1758 15.0179 16.7678 15.0909 16.36 15.0655H16.3453C15.2839 15.0578 14.2484 14.7367 13.369 14.1424C12.4895 13.5482 11.8052 12.7073 11.402 11.7255C11.3935 11.6998 11.3927 11.6758 11.3849 11.6478C12.0437 11.3515 12.76 11.2053 13.4822 11.2198H13.5055C15.437 11.278 17.3094 11.8989 18.893 13.0063C18.8711 13.405 18.7373 13.7894 18.507 14.1155V14.1155ZM18.5567 11.4443C17.0132 10.5746 15.279 10.0992 13.5078 10.0601H13.4814C12.7293 10.0527 11.9821 10.1809 11.2754 10.4384C11.3189 10.0973 11.4456 9.77213 11.6444 9.49153C11.9 9.17292 12.2285 8.9204 12.6021 8.75521C12.9757 8.59003 13.3836 8.51703 13.7913 8.54234H13.8061C14.785 8.55752 15.7419 8.83471 16.5774 9.34505C17.4128 9.8554 18.0963 10.5803 18.5567 11.4443V11.4443Z" fill="var(--fill-0, #242A2F)"/>
</g>
</svg>
