<svg preserveAspectRatio="none" width="100%" height="100%" overflow="visible" style="display: block;" viewBox="0 0 399.671 226" fill="none" xmlns="http://www.w3.org/2000/svg">
<path id="Vector 7" d="M77.7982 74.4938C70.5323 79.9951 64.8649 92.1301 3.96603 113.883L0 209.407L399.671 226V94.2792C399.161 92.7646 398.667 91.2946 397.401 89.8024C394.158 86.8401 389.169 83.3805 380.899 77.6713C368.15 70.997 351.863 69.3223 338.457 55.6364C330.727 47.7445 306.821 55.6957 299.776 44.7674C295.281 37.7961 290.13 31.2021 284.779 28.9317C274.248 24.4623 259.47 14.6568 248.562 9.36903C230.943 0.827835 229.455 -1.67777 222.859 1.05618C219.323 2.52222 206.912 11.1747 197.641 17.0902C189.903 22.0272 182.965 26.2708 172.42 27.7141C163.416 28.9465 152.9 27.3024 141.948 30.9362C131.476 34.4107 122.14 46.3102 108.997 55.4582C97.978 63.1274 85.6665 68.5364 77.7982 74.4938Z" fill="var(--fill-0, #CECECE)"/>
</svg>
