<svg preserveAspectRatio="none" width="100%" height="100%" overflow="visible" style="display: block;" viewBox="0 0 32 32" fill="none" xmlns="http://www.w3.org/2000/svg">
<g id="Dribbble">
<path id="Combined-Shape" d="M16 0C24.8366 0 32 7.16344 32 16C32 24.8366 24.8366 32 16 32C7.16344 32 0 24.8366 0 16C2.57703e-07 7.16344 7.16344 2.5772e-07 16 0ZM16 7.4668C15.4217 7.4668 14.8429 7.52482 14.2812 7.63965C13.7324 7.75114 13.1928 7.91809 12.6777 8.13574C12.1719 8.35046 11.6834 8.61453 11.2275 8.92285C10.7763 9.22824 10.3512 9.57745 9.96582 9.96191C9.58004 10.3484 9.2288 10.7709 8.92383 11.2227C8.61635 11.677 8.35184 12.165 8.1377 12.6709C7.91935 13.1847 7.75257 13.7241 7.63965 14.2725C7.52542 14.833 7.4668 15.4108 7.4668 15.9883C7.4668 16.5653 7.5255 17.1414 7.63965 17.7031C7.75257 18.2515 7.91933 18.79 8.1377 19.3047C8.35183 19.8102 8.61637 20.2977 8.92383 20.752C9.22876 21.2033 9.5801 21.6267 9.96582 22.0127C10.3513 22.3971 10.7763 22.7479 11.2275 23.0537C11.6834 23.3607 12.1719 23.6246 12.6777 23.8389C13.1928 24.0561 13.7325 24.2226 14.2812 24.335C14.8429 24.4507 15.4217 24.5098 16 24.5098C16.5778 24.5097 17.1564 24.4506 17.7188 24.335C18.2665 24.2226 18.806 24.056 19.3213 23.8389C19.8272 23.6245 20.3156 23.3608 20.7715 23.0537C21.2227 22.7479 21.647 22.3971 22.0332 22.0127C22.4186 21.6266 22.7697 21.2034 23.0742 20.752C23.3834 20.2976 23.648 19.8103 23.8613 19.3047C24.0797 18.79 24.2468 18.2515 24.3594 17.7031C24.4747 17.1415 24.5332 16.5653 24.5332 15.9883C24.5332 15.4108 24.4748 14.833 24.3594 14.2725C24.2468 13.7241 24.0797 13.1847 23.8613 12.6709C23.648 12.1651 23.3833 11.677 23.0742 11.2227C22.7697 10.771 22.4185 10.3483 22.0332 9.96191C21.6471 9.57758 21.2226 9.22816 20.7715 8.92285C20.3156 8.61451 19.8271 8.35043 19.3213 8.13574C18.8059 7.91819 18.2665 7.75117 17.7188 7.63965C17.1563 7.52484 16.5778 7.46682 16 7.4668Z" fill="var(--fill-0, #242A2F)"/>
<path id="Combined-Shape_2" d="M17.2883 17.1628C18.3136 19.8239 18.737 22.0524 18.8449 22.6882C17.9703 23.0597 17.0084 23.2644 15.9992 23.2644C14.3093 23.2643 12.7578 22.685 11.5207 21.7243C11.5375 21.6879 12.9425 18.6744 17.2395 17.1784C17.2553 17.1726 17.2721 17.1682 17.2883 17.1628ZM18.6535 16.8249C21.0054 16.4484 23.0441 17.0929 23.1946 17.1413C22.8704 19.1694 21.7078 20.9205 20.0715 22.0232C19.9973 21.5846 19.6094 19.4479 18.6535 16.8249ZM16.2004 14.7204C16.4091 15.1288 16.6084 15.5434 16.7912 15.9568C16.6956 15.9842 16.599 16.0121 16.5041 16.0437C12.5882 17.3081 10.5938 20.8166 10.5793 20.8503C9.4185 19.5617 8.71213 17.8574 8.71213 15.988C8.71214 15.9098 8.71589 15.8337 8.71799 15.7556C8.84715 15.7605 12.4482 15.8422 16.2004 14.7204ZM21.6272 11.365C22.6496 12.6044 23.2676 14.1879 23.2844 15.9128C23.1751 15.8904 20.7105 15.3622 18.2092 15.6765C18.158 15.5518 18.1057 15.4267 18.052 15.2995C17.9008 14.9447 17.7367 14.5918 17.5676 14.2448C20.4448 13.0714 21.6134 11.3845 21.6272 11.365ZM12.8899 9.40597C12.987 9.53541 14.3347 11.3617 15.5959 13.5993C12.0972 14.5276 9.06055 14.4897 8.86838 14.488C9.34131 12.2346 10.8578 10.3643 12.8899 9.40597ZM15.9992 8.71163C17.8443 8.71163 19.5297 9.39736 20.8127 10.5271C20.791 10.5594 19.7516 12.1334 17.0071 13.1609C15.7612 10.8765 14.3924 9.06326 14.2824 8.91574C14.8328 8.78346 15.4073 8.71166 15.9992 8.71163Z" fill="var(--fill-0, #242A2F)"/>
</g>
</svg>
