<svg preserveAspectRatio="none" width="100%" height="100%" overflow="visible" style="display: block;" viewBox="0 0 24 24" fill="none" xmlns="http://www.w3.org/2000/svg">
<g id="Dribbble">
<path id="Combined-Shape" d="M12 0C18.6274 0 24 5.37258 24 12C24 18.6274 18.6274 24 12 24C5.37258 24 0 18.6274 0 12C0 5.37258 5.37258 0 12 0ZM12 5.59961C11.5663 5.59961 11.1322 5.64338 10.7109 5.72949C10.2995 5.81308 9.89493 5.93841 9.50879 6.10156C9.1294 6.2626 8.76278 6.46113 8.4209 6.69238C8.08245 6.92144 7.76369 7.18332 7.47461 7.47168C7.18534 7.76149 6.92205 8.07824 6.69336 8.41699C6.46281 8.75765 6.2641 9.12363 6.10352 9.50293C5.93978 9.88821 5.81419 10.2929 5.72949 10.7041C5.64382 11.1245 5.59961 11.5581 5.59961 11.9912C5.59961 12.424 5.64389 12.8561 5.72949 13.2773C5.81419 13.6886 5.93974 14.0925 6.10352 14.4785C6.26413 14.8577 6.46273 15.2237 6.69336 15.5645C6.92205 15.9029 7.18535 16.2203 7.47461 16.5098C7.76368 16.7981 8.08245 17.0607 8.4209 17.29C8.76276 17.5203 9.12944 17.7182 9.50879 17.8789C9.89498 18.0417 10.2995 18.1667 10.7109 18.251C11.1322 18.3378 11.5662 18.3818 12 18.3818C12.4333 18.3818 12.8673 18.3377 13.2891 18.251C13.6999 18.1667 14.1047 18.0418 14.4912 17.8789C14.8705 17.7182 15.2363 17.5202 15.5781 17.29C15.9166 17.0606 16.2357 16.7981 16.5254 16.5098C16.8143 16.2203 17.0773 15.9029 17.3057 15.5645C17.5376 15.2237 17.7365 14.8577 17.8965 14.4785C18.0602 14.0925 18.1851 13.6886 18.2695 13.2773C18.3561 12.8561 18.4004 12.4239 18.4004 11.9912C18.4004 11.5581 18.3561 11.1245 18.2695 10.7041C18.1851 10.2929 18.0602 9.88823 17.8965 9.50293C17.7365 9.12358 17.5375 8.75771 17.3057 8.41699C17.0773 8.07831 16.8143 7.76144 16.5254 7.47168C16.2357 7.18332 15.9166 6.92144 15.5781 6.69238C15.2363 6.46115 14.8706 6.26257 14.4912 6.10156C14.1047 5.93836 13.7 5.81314 13.2891 5.72949C12.8673 5.64339 12.4334 5.59963 12 5.59961Z" fill="var(--fill-0, #242A2F)"/>
<path id="Combined-Shape_2" d="M12.9657 12.8716C13.7348 14.8676 14.0528 16.5393 14.1337 17.0161C13.4778 17.2948 12.7567 17.4487 11.9999 17.4488C10.7324 17.4488 9.5684 17.014 8.64054 16.2935C8.65194 16.2688 9.70484 14.0059 12.9296 12.8833C12.9414 12.879 12.9536 12.8756 12.9657 12.8716ZM13.9902 12.6187C15.7518 12.3367 17.2791 12.8186 17.3954 12.856C17.1523 14.377 16.2809 15.6902 15.0536 16.5171C14.9979 16.1877 14.7069 14.5855 13.9902 12.6187ZM12.1503 11.0396C12.3069 11.346 12.4565 11.6571 12.5937 11.9673C12.5218 11.9879 12.4491 12.009 12.3778 12.0327C9.42833 12.9852 7.93261 15.6354 7.93449 15.6382C7.06382 14.6717 6.5341 13.3928 6.5341 11.9908C6.53411 11.9322 6.53643 11.8755 6.538 11.8169C6.63487 11.8207 9.33611 11.8809 12.1503 11.0396ZM16.2206 8.52396C16.9875 9.45358 17.4513 10.6413 17.4638 11.9351C17.3847 11.9189 15.5347 11.5215 13.6571 11.7574C13.6188 11.6639 13.5793 11.5705 13.539 11.4751C13.4256 11.2089 13.3026 10.9434 13.1757 10.6831C15.3335 9.8031 16.2103 8.53859 16.2206 8.52396ZM9.66789 7.05423C9.74071 7.15131 10.7512 8.52145 11.6972 10.1997C9.07303 10.896 6.79539 10.867 6.65129 10.8658C7.00601 9.17563 8.14375 7.77293 9.66789 7.05423ZM11.9999 6.53373C13.3837 6.53378 14.6471 7.04782 15.6093 7.89505C15.5942 7.9175 14.8149 9.09944 12.7548 9.87064C11.8208 8.15817 10.7951 6.79881 10.7118 6.68705C11.1247 6.58782 11.5558 6.53373 11.9999 6.53373Z" fill="var(--fill-0, #242A2F)"/>
</g>
</svg>
