<svg preserveAspectRatio="none" width="100%" height="100%" overflow="visible" style="display: block;" viewBox="0 0 797 316" fill="none" xmlns="http://www.w3.org/2000/svg">
<path id="Vector 9" d="M36.6177 37.274C30.2565 39.7633 27.0779 41.2486 0 62.3943V316H797V58.3337C793.75 58.3337 779.912 53.9226 766.578 54.4376C758.595 54.7459 752.286 55.6766 744.83 53.9226C740.592 52.1834 728.041 49.5571 713.199 44.0887C703.404 40.4798 694.074 35.5418 680.852 30.116C673.148 26.9549 659.379 21.0705 651.3 18.8265C641.545 16.1171 638.479 16.0636 636.638 16.9941C634.917 17.8637 633.018 19.0839 631.061 20.4798C627.739 22.8497 614.046 30.617 604.896 34.9116C598.247 38.0316 587.92 39.8161 574.993 51.1123C563.45 61.2 555.384 66.4245 547.521 67.9998C538.244 69.8583 534.151 72.0644 529.21 71.9744C522.041 71.8438 516.695 71.969 513.023 69.6008C508.768 66.8578 505.531 63.7527 501.196 61.3829C492.533 56.6469 481.215 51.8472 471.856 55.6841C467.614 57.4232 463.172 59.7118 456.712 61.6591C448.478 64.1409 441.649 63.944 422.671 69.5075C412.08 72.6126 405.1 74.315 394.844 77.3709C386.34 79.9049 371.618 84.5849 360.465 87.1787C349.312 89.7724 341.951 90.2651 333.937 90.1307C325.923 89.9964 317.38 89.749 311.543 88.1266C302.159 85.5179 296.974 83.198 293.125 80.2782C287.556 76.0535 281.114 69.4205 269.13 61.312C261.331 56.0349 249.918 48.8845 242.897 45.309C233.926 40.741 226.213 38.4895 217.177 37.5091C210.298 36.7627 204.047 33.7788 198.344 29.4143C193.298 25.5517 186.161 19.0374 179.496 16.1096C174.959 14.1167 165.73 12.3977 158.872 11.75C151.009 11.0073 143.084 11.1719 136.736 9.27257C131.638 7.74739 124.256 2.27283 119.356 0.742809C112.948 -1.25842 108.943 0.742882 105.472 7.247C103.063 11.7611 102.018 14.6245 98.5305 19.7551C94.1489 26.2003 88.2962 24.7087 82.3012 26.5742C73.4505 29.3285 60.2658 31.7903 55.8726 32.5418C48.5634 33.792 42.9339 34.8023 36.6177 37.274Z" fill="var(--fill-0, #EAEAEA)"/>
</svg>
