<svg preserveAspectRatio="none" width="100%" height="100%" overflow="visible" style="display: block;" viewBox="0 0 1672 339" fill="none" xmlns="http://www.w3.org/2000/svg">
<path id="Vector 6" d="M67.1135 66.4333C55.6179 64.4516 39.7467 60.816 0 42.8893V339H1672V56.1575C1667.39 56.1575 1662.92 56.1575 1659.3 55.9344C1648.93 54.399 1630.8 44.7401 1608.23 40.1862C1596.95 38.2045 1585.3 24.7263 1573.44 32.7845C1566.68 37.3778 1561.44 46.8843 1554.94 53.1129C1553.57 54.4252 1551.65 55.7695 1549.97 55.0552C1546.36 53.5197 1537.43 48.0297 1530.07 51.584C1519.68 56.6037 1511.56 59.2284 1505.01 62.7324C1498.45 66.2364 1493.61 75.0404 1478.34 78.9203C1466.27 81.9846 1453.08 87.2524 1440.6 94.242C1432.03 99.0452 1425.47 104.255 1418.48 105.817C1411.67 107.339 1402.55 103.342 1392.7 104.938C1383.23 106.473 1354.21 109.477 1335.32 108.435C1323.06 107.759 1302.83 91.6095 1278.14 99.6883C1269.36 102.562 1262.33 105.738 1255.11 110.646C1244.49 117.864 1238.82 123.063 1232.76 124.19C1224.57 125.712 1193.35 115.813 1165.39 120.909C1158.19 122.221 1153.74 125.161 1144.99 125.056C1126.47 124.833 1105.16 119.23 1088.1 116.729C1077.75 115.213 1072.84 116.372 1067.78 116.309C1049.26 116.08 1039.13 113.929 1033.02 110.824C1024.42 106.447 1016.06 101.685 1006.35 103.848C994.572 106.473 980.844 107.867 973.838 104.925C967.026 102.064 959.277 80.7775 951.009 78.4257C947.179 77.3365 928.863 67.2961 897.055 54.075C882.327 47.9529 870.041 42.939 861.925 41.8833C838.567 38.8452 811.437 46.3895 797.594 41.0237C790.823 38.399 787.546 33.0934 779.076 28.9894C772.278 25.6954 764.367 22.3592 756.932 20.9053C750.154 19.5798 740.833 30.8096 726.253 24.4224C719.258 21.3581 712.414 25.7259 705.621 20.9052C698.843 16.0955 701.495 17.9532 693.758 13.9585C692.415 13.2652 685.505 11.961 680.863 9.96365C676.808 8.21909 674.552 8.58305 667.452 6.46811C660.746 4.47092 658.648 -1.7553 652.493 0.476109C647.064 2.44464 638.487 22.127 631.531 24.4224C622.265 27.4802 613.533 27.69 605.551 34.0551C597.864 40.1838 590.961 45.1486 584.545 47.8217C576.608 51.1288 567.57 58.9428 559.005 65.335C548.113 73.465 536.178 83.262 528.504 84.5676C516.934 86.5361 503.867 105.448 497.555 110.646C489.876 116.972 483.56 120.479 475.839 123.986C461.408 130.542 440.582 131.4 414.49 131.178C388.977 130.962 365.662 131.328 352.444 127.878C340.731 124.82 327.104 119.533 311.47 103.671C287.781 79.6355 271.826 63.0804 269.155 57.4502C266.66 52.1942 263.34 41.8451 253.992 38.2794C251.721 37.4132 249.36 37.1016 247.214 38.0825C239.087 41.7965 230.085 43.0164 221.464 43.7585C213.764 44.4212 205.941 46.1659 199.774 50.4593C192.535 55.4988 166.128 53.5912 153.446 64.7206C143.733 73.2444 134.835 82.0487 123.405 80.6526C119.806 80.213 117.578 77.6615 113.225 75.6C101.709 70.1472 91.4156 70.6225 67.1135 66.4333Z" fill="var(--fill-0, #BBBBBB)"/>
</svg>
