<svg preserveAspectRatio="none" width="100%" height="100%" overflow="visible" style="display: block;" viewBox="0 0 1282.71 193.466" fill="none" xmlns="http://www.w3.org/2000/svg">
<path id="Vector 4" d="M65.8531 93.1031C57.8361 97.3239 35.1352 110.176 0 130.254V193.466H1282.71V80.8211C1271.46 79.5536 1258.07 79.5536 1249.87 79.1226C1238.74 77.8551 1232.42 75.3201 1222.89 72.1513C1211.25 69.8191 1196.15 71.0031 1181.89 62.626C1171.15 56.3076 1164.99 54.428 1158.26 51.4467C1149.77 47.6892 1141.48 44.4898 1132.06 40.8573L1129.94 40.0392C1121.71 36.8641 1116.5 32.3667 1098.38 27.1233C1069.32 18.7134 1060.94 18.8016 1053.48 14.4736C1046.93 10.6775 1038.59 3.89107 1034.09 0.891194C1032.42 -0.218173 1030.58 -0.608771 1028.56 1.61484C1024.12 6.49476 1020.77 14.1458 1015.03 18.7325C1011.87 21.2611 1007.17 22.7405 1001.93 22.3005C994.533 21.6794 985.243 22.5178 978.493 24.8481C972.985 26.7494 962.43 25.6531 948.212 29.7217C926.088 36.0529 916.169 37.8152 907.912 41.9658C896.073 47.9167 887.228 56.5135 873.271 58.6461C863.524 60.1354 852.952 64.1802 843.282 69.0079C834.802 73.2414 826.497 77.6024 821.322 80.8337C814.522 85.0799 797.262 90.9556 769.494 85.6629C750.741 82.0886 730.643 97.0734 709.529 98.1478C701.309 98.5661 692.427 99.9767 670.616 101.329C653.448 102.394 624.486 105.644 608.648 103.845C584.268 101.076 561.897 93.4802 554.095 101.329C553.036 102.394 552.157 103.625 551.351 105.138C549.665 108.3 531.112 108.591 504.789 110.189C487.456 111.241 466.442 109.404 455.217 105.316C448.239 102.774 441.346 106.206 420.335 99.6181C411.482 96.8423 405.106 87.1867 395.86 85.0355C388.641 83.3561 377.592 84.2899 365.003 78.2734C356.117 74.0272 348.763 66.9683 340.261 67.0877C324.455 67.3095 313.789 71.3781 304.593 65.5984C297.838 61.3522 293.289 54.1793 285.137 53.3543C272.488 52.0741 269.295 44.471 263.19 44.4818C256.01 44.4944 245.587 42.2018 228.74 49.9954C220.52 53.7979 195.816 52.1365 176.563 59.508C161.683 65.2054 145.233 72.5567 136.649 75.5546C128.829 78.2861 115.463 81.7804 105.177 83.1469C97.116 84.218 78.5065 86.4413 65.8531 93.1031Z" fill="var(--fill-0, #848484)"/>
</svg>
