<svg preserveAspectRatio="none" width="100%" height="100%" overflow="visible" style="display: block;" viewBox="0 0 34.9252 51.3604" fill="none" xmlns="http://www.w3.org/2000/svg">
<path id="d" d="M26.7142 46.4658C24.126 49.403 20.6296 51.3604 16.433 51.3604C6.92132 51.3604 0 43.6674 0 32.9678C0 22.3377 6.92349 14.5753 16.433 14.5753C20.1397 14.5753 23.2871 15.9734 25.7344 18.282L25.8341 0H34.9252L34.8255 50.4521H27.4122L26.7142 46.4658ZM9.22987 32.97C9.22987 39.1933 12.516 43.249 17.4821 43.249C22.8666 43.249 25.7344 39.1933 25.7344 32.97C25.7344 26.7467 22.8666 22.6888 17.4821 22.6888C12.5182 22.6888 9.22987 26.7467 9.22987 32.97Z" fill="var(--fill-0, #111111)"/>
</svg>
