<svg preserveAspectRatio="none" width="100%" height="100%" overflow="visible" style="display: block;" viewBox="0 0 877.853 156.704" fill="none" xmlns="http://www.w3.org/2000/svg">
<path id="Vector 3" d="M0.000241705 156.703L0 156.704H877.853V0C877.057 0.530142 876.286 1.04469 875.502 1.4345C873.947 2.08159 867.429 4.95059 860.296 9.37104C856.522 13.7993 854.204 21.4102 848.582 22.8741C846.605 23.3886 843.398 22.8369 841.577 23.5211C837.032 25.2285 834.346 32.4662 830.28 31.4421C828.206 30.9197 826.15 29.6907 823.911 29.7542C819.1 29.8906 812.672 28.6024 809.495 32.1048C808.201 33.5315 806.421 35.6931 804.034 37.8233C798.004 43.2066 789.932 51.1679 785.963 54.2031C779.34 59.2667 776.324 63.3682 766.421 68.7781C748.155 78.7573 740.244 82.0574 733.736 84.3354C728.914 86.0233 714.726 91.5397 700.848 99.9395C694.626 103.705 690.15 106.189 683.797 109.829C668.634 118.518 664.411 122.301 659.399 125.149C650.952 129.947 646.33 132.103 643.175 133.319C639.788 134.625 620.789 138.609 609.125 134.087C604.44 132.27 598.758 132.673 591.693 132.407C581.036 132.005 574.399 129.71 556.181 129.023C545.945 128.637 535.867 129.918 530.376 126.154C527.538 124.209 525.742 121.226 522.455 118.744C517.652 115.119 513.43 114.639 507.907 113.692C504.134 113.045 499.676 112.715 493.582 109.642C480.199 102.894 472.987 100.601 467.102 99.9201C459.118 98.9962 445.992 95.8176 436.494 91.6951C422.726 85.7193 413.274 81.1526 411.628 80.4256C407.18 78.461 401.347 76.3772 396.277 74.5746C388.22 71.7095 379.414 69.0395 372.495 66.7745C363.802 63.9289 359.74 66.6301 345.204 63.0167C336.203 60.7792 327.109 54.264 316.288 54.0511C289.738 53.5287 286.191 51.6303 282.211 49.4981C278.558 47.5413 274.562 43.0905 267.464 43.0078C256.425 42.8791 244.479 41.7846 236.315 40.9262C227.602 40.0101 220.189 34.8034 210.86 38.4665C205.539 40.5559 202.621 43.9812 194.753 49.9152C188.886 54.3395 181.615 57.9096 177.091 59.906C173.84 61.3405 169.364 63.8861 165.268 65.3634C160.555 67.0629 148.072 69.0706 141.092 73.1635C136.418 75.9038 133.575 79.2752 130.185 82.3903C127.063 85.2593 114.002 94.5816 103.799 99.9317C101.078 101.358 94.2953 104.006 84.9279 106.169C71.8966 109.178 60.8098 112.989 56.3783 116.694C53.2637 119.298 49.3334 119.772 24.3047 137.046C15.9511 142.811 7.97568 149.757 0.000241705 156.703Z" fill="var(--fill-0, #5F5F5F)"/>
</svg>
