<svg preserveAspectRatio="none" width="100%" height="100%" overflow="visible" style="display: block;" viewBox="0 0 1485.97 470.898" fill="none" xmlns="http://www.w3.org/2000/svg">
<path id="Vector 8" d="M44.431 163.618C37.695 165.181 32.3196 164.279 0 154.404V470.898H1485.97V224.459C1481.45 222.653 1479.67 222.209 1476.72 221.986C1469.77 221.764 1461.25 219.959 1451.14 218.841C1440.55 217.723 1426.54 216.953 1405.32 204.446C1396.57 199.293 1384.04 199.297 1375.25 198.639C1365.99 197.945 1348.05 192.964 1340.46 186.723L1340.13 186.456C1335.25 182.445 1329.13 177.42 1317.31 169.425C1309.01 163.807 1304.68 157.702 1299.82 151.911C1295.1 146.293 1290.54 141.054 1284.99 138.001C1278.02 134.168 1271.7 130.693 1259.38 123.842C1249.7 118.46 1233.34 114.204 1222.57 120.514C1216.05 124.334 1207.34 128.423 1197.85 133.097C1183.69 140.069 1175.32 147.178 1163.49 154.437C1149.58 162.972 1142.29 172.285 1133.87 177.104C1124.87 182.264 1117.02 185.621 1104.87 186.292C1088.52 187.195 1080.74 184.736 1077.08 189.896C1073.24 195.305 1067.45 207.89 1057.29 206.042C1044.92 203.792 1035.88 203.653 1007.79 200.869C987.642 198.872 975.717 196.777 972.328 196.181L972.209 196.16C964.577 194.82 959.414 191.604 950.62 191.001C934.022 189.862 927.523 186.39 917.869 179.071C908.398 171.89 888.915 165.094 865.759 153.481C856.8 148.988 848.154 152.527 831.836 137.871C823.106 130.03 809.666 122.434 798.607 111.156C785.371 97.6566 773.643 76 766.143 76C758.643 76 750.643 86 750.643 86C750.643 86 746.552 95.5172 737.787 98.5702C728.815 101.696 721.106 102.907 716.926 98.5365C712.19 93.5855 700.087 83.4618 688.351 83.0571C668.621 82.3767 659.915 79.5494 654.725 74.509C647.039 67.0455 635.939 57.848 630.017 53.8495C622.385 48.6964 614.303 49.9312 603.955 41.7111C594.094 33.8771 586.844 33.226 579.496 28.4815C572.538 23.9886 566.904 19.808 561.538 15.0027C555.024 9.16925 551.526 2.17602 544.456 0.87042C538.4 -0.247766 533.378 -0.414957 530.552 1.11965C523.122 5.15455 515.569 10.0801 501.351 12.1129C493.484 13.2378 486.14 15.4905 478.893 18.8624C468.803 23.5575 461.556 31.3939 451.949 25.1068C446.803 21.7387 442.99 17.6629 439.393 16.1411C437.817 15.4742 436.302 15.215 434.9 16.3903C427.928 22.2372 415.421 31.3827 402.318 37.5011C395.595 40.6401 378.676 48.0696 357.375 52.5427C343.485 55.4594 327.315 43.0252 315.881 45.2861C299.835 48.4588 280.505 46.9559 252.077 58.0981C238.861 63.2782 229.813 67.4678 224.277 73.1532C215.527 82.1391 209.517 91.4529 199.792 99.4306C188.583 108.625 184.44 114.624 171.958 123.445C164.333 128.833 148.368 135.722 136.021 148.382C126.18 158.472 119.368 171.604 110.673 170.341C109.097 170.112 107.691 169.751 106.639 168.758C102.361 164.723 93.6445 158.558 82.3079 158.667C57.9032 158.903 51.9956 161.864 44.431 163.618Z" fill="var(--fill-0, #E0E0E0)"/>
</svg>
