<svg preserveAspectRatio="none" width="100%" height="100%" overflow="visible" style="display: block;" viewBox="0 0 360 360" fill="none" xmlns="http://www.w3.org/2000/svg">
<g id="background-transform1">
<path id="lg" d="M0 180C0 127.493 5.09268 77.7951 12.6439 46.7122C16.3317 28.9756 26.6927 17.0341 46.7122 12.6439C79.3756 4.56585 127.493 0 180 0C232.507 0 280.8 4.39024 313.288 12.6439C333.307 17.0341 343.668 28.9756 347.356 46.7122C354.732 77.7951 360 127.493 360 180C360 232.507 354.732 282.205 347.356 313.288C343.668 331.024 333.307 342.966 313.288 347.356C280.624 355.434 232.507 360 180 360C127.493 360 79.2 355.61 46.7122 347.356C26.6927 342.966 16.3317 331.024 12.6439 313.288C5.09268 282.205 0 232.507 0 180Z" fill="var(--fill-0, #FF6200)"/>
</g>
</svg>
