<svg preserveAspectRatio="none" width="100%" height="100%" overflow="visible" style="display: block;" viewBox="0 0 1481 625" fill="none" xmlns="http://www.w3.org/2000/svg">
<path id="bg-cover" d="M0.5 312.5C0.5 221.487 21.4366 135.345 52.4805 81.4678C67.6414 50.7244 110.237 30.0258 192.539 22.4161C326.822 8.41414 524.637 0.5 740.5 0.5C956.363 0.5 1154.9 8.10975 1288.46 22.4161C1370.76 30.0258 1413.36 50.7244 1428.52 81.4678C1458.84 135.345 1480.5 221.487 1480.5 312.5C1480.5 403.513 1458.84 489.655 1428.52 543.532C1413.36 574.276 1370.76 594.974 1288.46 602.584C1154.18 616.586 956.363 624.5 740.5 624.5C524.637 624.5 326.1 616.89 192.539 602.584C110.237 594.974 67.6414 574.276 52.4805 543.532C21.4366 489.655 0.5 403.513 0.5 312.5Z" fill="var(--fill-0, #D9D9D9)" stroke="var(--stroke-0, black)"/>
</svg>
