<svg width="320" height="320" viewBox="0 0 320 320" fill="none" xmlns="http://www.w3.org/2000/svg">
<path d="M0 160C0 113.327 4.52682 69.1512 11.239 41.522C14.5171 25.7561 23.7268 15.1415 41.522 11.239C70.5561 4.05853 113.327 0 160 0C206.673 0 249.6 3.90244 278.478 11.239C296.273 15.1415 305.483 25.7561 308.761 41.522C315.317 69.1512 320 113.327 320 160C320 206.673 315.317 250.849 308.761 278.478C305.483 294.244 296.273 304.859 278.478 308.761C249.444 315.941 206.673 320 160 320C113.327 320 70.4 316.098 41.522 308.761C23.7268 304.859 14.5171 294.244 11.239 278.478C4.52682 250.849 0 206.673 0 160Z" fill="#FF6200"/>
</svg>
