<svg preserveAspectRatio="none" width="100%" height="100%" overflow="visible" style="display: block;" viewBox="0 0 32 31" fill="none" xmlns="http://www.w3.org/2000/svg">
<path id="Warren Bubble" fill-rule="evenodd" clip-rule="evenodd" d="M24.0001 19.8333C24.0001 21.5362 22.6336 22.917 20.9481 22.917C20.5944 22.917 20.3076 22.6273 20.3076 22.2699V8.73005C20.3076 8.37269 20.5944 8.08302 20.9481 8.08302H23.3597C23.7134 8.08302 24.0001 8.37269 24.0001 8.73005V19.8333ZM17.8462 22.2699C17.8462 22.6273 17.5594 22.917 17.2058 22.917H14.7943C14.4405 22.917 14.1539 22.6273 14.1539 22.2699V12.4386C14.1539 12.0813 14.4405 11.7916 14.7943 11.7916H17.2058C17.5594 11.7916 17.8462 12.0813 17.8462 12.4386V22.2699ZM11.6923 22.2699C11.6923 22.6273 11.4056 22.917 11.0519 22.917H8.6404C8.28663 22.917 8.00002 22.6273 8.00002 22.2699V10.5954C8.00002 10.2381 8.28663 9.94835 8.6404 9.94835H11.0519C11.4056 9.94835 11.6923 10.2381 11.6923 10.5954V22.2699ZM20.3076 0H11.6923C5.23486 0 0 5.28915 0 11.8138V30.353C0 30.7103 0.286691 31 0.640377 31H20.3076C26.7652 31 32 25.7108 32 19.1862V11.8138C32 5.28915 26.7652 0 20.3076 0V0Z" fill="var(--fill-0, white)"/>
</svg>
