<svg preserveAspectRatio="none" width="100%" height="100%" overflow="visible" style="display: block;" viewBox="0 0 29.3333 24.6667" fill="none" xmlns="http://www.w3.org/2000/svg">
<g id="Group">
<path id="Vector" d="M17.4133 10.5867L14.6667 9.33333L17.4133 8.08L18.6667 5.33333L19.92 8.08L22.6667 9.33333L19.92 10.5867L18.6667 13.3333L17.4133 10.5867ZM4 16L5.25333 13.2533L8 12L5.25333 10.7467L4 8L2.74667 10.7467L0 12L2.74667 13.2533L4 16ZM10 9.33333L11.4533 6.12L14.6667 4.66667L11.4533 3.21333L10 0L8.54667 3.21333L5.33333 4.66667L8.54667 6.12L10 9.33333ZM4.66667 24.6667L12.6667 16.6533L18 21.9867L29.3333 9.24L27.4533 7.36L18 17.9867L12.6667 12.6533L2.66667 22.6667L4.66667 24.6667Z" fill="var(--fill-0, #008000)"/>
</g>
</svg>
